<svg xmlns="http://www.w3.org/2000/svg" width="746.213" height="235.885" viewBox="0 0 746.213 235.885"><g transform="translate(-630.26 -1393.771)"><path d="M4.693,3.3Q3.65.521,4.172-9.387q.7-9.908,2.26-19.121.869-4.52,2.434-13.211-1.217-1.217-3.3-3.477Q4.172-46.76,3.129-48.15a5.625,5.625,0,0,1-.869-2.26q0-2.086,2.26-4.693a10.242,10.242,0,0,1,4.52-3.3,4.376,4.376,0,0,0,2.607-1.564,8.124,8.124,0,0,0,1.564-3.477q.521-1.912,1.912-8.344t2.955-13.732q2.086-9.213,3.65-17.209,1.738-7.822,1.738-8.344t-.7-.7a1.462,1.462,0,0,0-1.217-.174,13.253,13.253,0,0,1-5.215-.348q-2.781-.869-3.129-2.086-.7-1.912,2.607-5.389a42.731,42.731,0,0,1,9.387-6.779q4.693-2.434,13.559-6.084,8.865-3.824,17.383-6.779,4.52-1.564,8.518-2.955,4-1.217,6.605-1.738a46.6,46.6,0,0,1,10.256-1.217q2.086,0,4.172.174,6.779.7,6.779,3.3,0,1.738-9.734,6.605a235.966,235.966,0,0,1-25.031,10.6q-7.822,2.955-13.732,5.563t-6.084,3.3q-.521.869-1.912,7.822-1.564,6.779-3.3,15.123-2.086,10.43-3.65,19.643-1.738,9.213-1.564,9.387a2.75,2.75,0,0,0,1.738.348q1.391-.174,3.129-.521a40.911,40.911,0,0,1,5.736-.7,41.944,41.944,0,0,1,6.605-.174A64.082,64.082,0,0,1,55.8-63.621q5.041,1.043,5.563,2.607.348,1.391-4.693,4a96.277,96.277,0,0,1-11.994,4.693q-3.824,1.217-7.822,2.26A72.181,72.181,0,0,1,29.377-48.5a25.372,25.372,0,0,0-3.477.869,3.908,3.908,0,0,0-1.912,1.043A27.8,27.8,0,0,0,22.6-41.893q-1.043,4-2.086,9.213Q19.121-25.9,17.557-19.816q-1.564,5.91-3.129,10.6Q11.473-.348,8.691,3.477,7.3,5.389,6.258,5.389,5.389,5.215,4.693,3.3ZM124.287-140.105a44.8,44.8,0,0,1,.348,5.563,68.614,68.614,0,0,1-.521,8.518,61.347,61.347,0,0,1-3.65,14.428A73.786,73.786,0,0,1,109.338-93,103.181,103.181,0,0,1,95.779-78.744a16.544,16.544,0,0,0-1.217,4q-.7,2.781-1.738,7.822Q89.7-51.453,87.783-38.764q-1.912,12.516-2.955,25.205-.348,6.779-.7,13.906t-.348,15.123q-.174,7.648-.348,13.906-.348,6.084-.869,7.127-.869,2.434-2.607,2.607h-.348a4.751,4.751,0,0,1-3.3-1.912,18.018,18.018,0,0,1-3.3-7.475A68.525,68.525,0,0,1,71.1,17.035q-.174-4.693-.174-10.082,0-10.6,1.043-23.814,1.912-20.164,6.258-42.762,1.391-7.475,3.129-15.471,1.564-7.822,3.477-15.471,3.3-14.08,6.605-25.9T97-134.2a61.043,61.043,0,0,1,8.344-14.775q4.867-6.084,8.691-6.258h.348q3.65,0,6.432,4.52A26.65,26.65,0,0,1,124.287-140.105ZM104.3-114.727q-2.781,10.43-4.52,16.34-1.564,6.084-1.217,7.3,6.084-8.691,10.082-15.645a61.808,61.808,0,0,0,6.084-17.557,51.575,51.575,0,0,0,.7-13.037q-.348-5.736-1.043-5.736-1.043.174-4,8.518Q107.426-126.373,104.3-114.727Zm-2.781,92.65a11.6,11.6,0,0,1-3.824-4.867A16.084,16.084,0,0,1,96.3-33.549a37.093,37.093,0,0,1,1.564-9.908,79.7,79.7,0,0,1,4.346-10.951A70.66,70.66,0,0,1,110.9-68.662q4.867-6.084,8.344-5.736,3.824.521,3.65,2.781,0,2.434-3.824,10.43A147.238,147.238,0,0,0,111.945-44.5q-2.781,8.344-2.26,9.908.348,1.043,1.043,1.043a7.185,7.185,0,0,0,2.26-.869,21.456,21.456,0,0,0,6.258-5.562,42.864,42.864,0,0,0,5.736-8.344,27.515,27.515,0,0,0,2.955-10.6A30.831,30.831,0,0,0,126.373-70.4q-1.043-4.867,2.955-7.127A7.714,7.714,0,0,1,132.8-78.4a11.056,11.056,0,0,1,5.563,1.738q2.434,1.564,6.953,4.346a44.646,44.646,0,0,0,11.3,5.041,31.007,31.007,0,0,0,11.646,1.043q5.041-.174,5.041,1.391a2,2,0,0,1-.7,1.391,20.439,20.439,0,0,1-6.084,3.477,21.23,21.23,0,0,1-10.777,1.564,32.427,32.427,0,0,1-9.039-2.086,22.708,22.708,0,0,1-5.389-3.129,42.521,42.521,0,0,1-1.043,10.777,56.286,56.286,0,0,1-3.824,10.43,51.021,51.021,0,0,1-12.342,15.992q-7.648,6.605-15.471,6.432a13.935,13.935,0,0,1-4-.521A9.915,9.915,0,0,1,101.516-22.076ZM200.6-8.865a21.925,21.925,0,0,1-5.736-5.215,32.362,32.362,0,0,1-4.172-8q-.869-2.434-1.564-4-.7-1.738-.869-1.738a6.125,6.125,0,0,0-1.391,1.217q-1.217,1.043-2.607,2.434A15.489,15.489,0,0,1,178-19.99a9.132,9.132,0,0,1-6.258-.521q-6.258-2.607-7.475-12.863-.174-2.26-.174-4.693A86.328,86.328,0,0,1,167.223-59.1q3.477-13.559,6.432-17.9t6.258-.869a5.631,5.631,0,0,1,1.043,3.477,104.7,104.7,0,0,1-1.391,10.951q-2.086,14.254-2.434,19.816-.521,5.563.348,5.563.348,0,1.738-2.607,1.217-2.781,2.781-6.432,2.607-6.953,4.693-9.387a6.28,6.28,0,0,1,5.041-2.26,5.754,5.754,0,0,1,5.389,3.129q1.564,3.3,2.781,12.342,1.912,17.383,5.91,21.555,3.824,4.172,9.561-4.867a69.319,69.319,0,0,0,5.389-12.516,102.981,102.981,0,0,0,3.824-15.471q.348-2.781.869-9.039t.869-12.342q.174-6.084.521-10.777.521-4.693.869-5.215a1.467,1.467,0,0,1,1.217-.869q1.738,0,4.346,4.693a43.528,43.528,0,0,1,4.867,14.775,42.474,42.474,0,0,1,.521,6.953,90.027,90.027,0,0,1-1.738,16.514,99.628,99.628,0,0,1-7.648,24.857,50.1,50.1,0,0,1-6.953,10.256q-4.346,5.041-7.648,6.432a17.2,17.2,0,0,1-6.605,1.217h-.7A14.232,14.232,0,0,1,200.6-8.865Zm38.59-10.951q-1.738-2.781-1.738-9.039a17.187,17.187,0,0,1,.174-2.434,160.648,160.648,0,0,1,2.955-21.9q1.738-9.039,2.781-12.689a11.773,11.773,0,0,1,2.434-4.867q2.086-2.086,3.477-2.086h.7a7.755,7.755,0,0,1,3.129,1.564,4.667,4.667,0,0,1,1.912,2.086,5.788,5.788,0,0,1,.869,2.607,62.632,62.632,0,0,1-.7,6.605q-.869,4.867-2.086,11.125-1.738,9.213-3.824,18.426-2.26,9.039-3.3,10.951-1.391,2.434-3.3,2.434Q240.752-17.209,239.188-19.816ZM249.1-85.871a8.517,8.517,0,0,1-2.086-2.955,6.526,6.526,0,0,1,.869-3.3,5.848,5.848,0,0,1,5.215-4q4-.348,5.736,2.607a9.653,9.653,0,0,1,1.391,3.824q0,2.607-2.781,4.693a5.371,5.371,0,0,1-4.346,1.564A7.108,7.108,0,0,1,249.1-85.871Zm44.5,61.535q-3.824-3.477-3.824-10.256.174-6.953,4.172-21.555,1.217-4.172,1.912-7.475a11.2,11.2,0,0,0,.521-3.3q-.348-.348-3.129,3.824-2.781,4.346-10.6,17.035-8.518,13.559-14.6,17.209-5.91,3.477-9.908-2.781a7.7,7.7,0,0,1-1.564-3.824,9.267,9.267,0,0,1-.174-2.086q0-1.564.174-4.172.174-2.086,1.043-6.779,1.043-4.867,2.26-10.43,1.738-8.518,3.824-16.514a71.593,71.593,0,0,1,2.955-9.734,3.607,3.607,0,0,1,3.129-1.738,3.747,3.747,0,0,1,3.477,1.391q.7.869.7,3.824-.174,2.781-1.043,10.951-.7,5.563-1.391,10.256-.7,4.52-.869,5.389-.7,3.129,1.217.869,1.912-2.434,7.127-10.777,11.994-19.816,18.426-25.031a9.822,9.822,0,0,1,5.91-2.434,8.307,8.307,0,0,1,5.91,2.781,8.81,8.81,0,0,1,2.26,5.736,46.494,46.494,0,0,1,0,5.736,78.15,78.15,0,0,1-1.217,10.256q-1.217,5.91-3.129,13.211-1.564,6.084-2.781,10.777-1.043,4.52-1.043,5.041,0,1.564,6.432-3.65,6.605-5.389,12.863-11.473,3.65-3.477,7.3-6.605a65.2,65.2,0,0,1,5.215-4.172q2.955-1.912,4.867-1.738,1.912,0,1.912,2.086,0,2.26-4.52,8.691-4.52,6.258-10.082,13.037-3.824,4.52-7.475,8.344t-6.084,6.084q-5.91,5.041-11.3,6.084a10.779,10.779,0,0,1-2.607.348A8.849,8.849,0,0,1,293.6-24.336Zm91.955-59.971q.869.869,1.217,4.867.174,4,.174,16.861,0,10.256.348,15.3.174,4.867.7,4.867a3.583,3.583,0,0,0,1.391-.7,8.967,8.967,0,0,0,1.912-1.738,23.806,23.806,0,0,1,2.955-2.781q2.086-1.738,4.52-3.65,4.52-3.477,9.734-6.953,5.215-3.65,8.344-5.389a31.262,31.262,0,0,1,8.518-3.129q3.477-.521,4.172,1.217a2.86,2.86,0,0,1,.174.869q-.174,1.738-2.781,4.52-3.3,3.477-13.906,11.82-5.563,4.52-11.82,9.908t-9.387,8.17l-7.127,7.127q-.7,3.477-1.912,10.43Q380.336.521,376.164,15.123a253.68,253.68,0,0,1-9.213,26.6q-2.607,6.605-5.215,12.168a97.3,97.3,0,0,1-5.389,9.561q-6.953,10.6-15.471,14.949a21.925,21.925,0,0,1-9.213,2.26,15.673,15.673,0,0,1-6.779-1.564,17.089,17.089,0,0,1-8.344-7.475q-2.434-4.693-2.434-12.516,0-13.385,11.994-32.332,11.82-18.947,35.982-44.152l9.908-10.43q.348-3.477,1.217-10.256.521-4.172.7-7.3a12,12,0,0,0,.174-3.3q-.174-.174-1.912,2.26-1.912,2.607-4.172,6.084a96.276,96.276,0,0,1-10.6,13.559q-5.736,5.91-9.561,8a16.114,16.114,0,0,1-8,1.738,11.308,11.308,0,0,1-6.779-2.26,13.3,13.3,0,0,1-4-5.736,26.676,26.676,0,0,1-.7-9.213,44.252,44.252,0,0,1,1.738-8.865,69.882,69.882,0,0,1,3.65-9.561,83.653,83.653,0,0,1,10.256-16.514q6.084-7.648,11.82-10.256a11.567,11.567,0,0,1,7.475-1.217,11.643,11.643,0,0,1,6.779,3.477,34.451,34.451,0,0,1,2.955,2.955q1.043-1.391,2.955-4,1.217-1.738,2.086-3.129a7.88,7.88,0,0,0,.869-1.564q0-.174.7-.7.869-.521,1.912-1.043L382.6-85l.7-.348h.348a2.86,2.86,0,0,1,.869.174A10.164,10.164,0,0,0,385.551-84.307ZM341.4-33.9q0,3.129,1.564,2.607,1.738-.7,5.736-5.041,1.217-1.391,2.781-3.477,1.738-2.086,3.477-4.52,3.129-4.693,6.084-9.387a51.9,51.9,0,0,0,3.824-7.127,6.551,6.551,0,0,0,0-4.693q-.869-2.26-2.607-2.26-2.607,0-6.953,5.563a76.523,76.523,0,0,0-8.344,12.342,65.645,65.645,0,0,0-4,8.865A22.111,22.111,0,0,0,341.4-33.9Zm1.391,56.842q-10.777,14.949-14.428,26.6-3.824,11.646.348,16.34a4.474,4.474,0,0,0,3.3,1.738q1.564,0,4.693-2.086a22.077,22.077,0,0,0,5.91-5.041,67.788,67.788,0,0,0,5.563-8.865,111.848,111.848,0,0,0,5.389-11.473q2.955-7.127,5.563-14.949Q363.3,13.559,365.908,4q2.434-9.734,1.043-9.734-.7,0-5.041,4.867-4.346,5.041-9.387,11.125-2.781,3.3-5.215,6.779Q344.7,20.338,342.789,22.945ZM484.111,11.473q-.869-1.738-.348-7.648Q484.111-2.26,485.5-11.3q2.781-17.209,8.17-42.24,5.389-25.205,11.646-51.453,1.391-5.736,2.26-10.082.869-4.172.7-4.346t-1.391,0q-1.043.174-3.65.7-5.91,1.391-10.082,2.26-4.346,1.043-7.127,1.564a47.382,47.382,0,0,1-7.3,1.043,5.493,5.493,0,0,1-3.129-1.391,5.377,5.377,0,0,1-1.738-3.129,1.543,1.543,0,0,1-.174-.7,6.059,6.059,0,0,1,1.043-2.955q.7-1.391,7.475-3.477,6.779-1.912,25.9-7.648,3.3-1.043,3.65-1.564t1.391-2.434a14.647,14.647,0,0,1,3.129-4.867,6.32,6.32,0,0,1,4-1.217,6.263,6.263,0,0,1,2.781.521,4.667,4.667,0,0,1,2.086,1.912q.7.869,1.912,2.434,8.344-2.086,25.379-6.258,10.951-2.607,20.164-4.693a106.843,106.843,0,0,1,12.689-2.086,53.647,53.647,0,0,1,5.91-.348,42.142,42.142,0,0,1,5.563.348q4.867.521,4.867,1.912,0,.7-3.65,2.781-3.824,2.086-8.691,4.346-2.781,1.217-5.562,2.26a52.27,52.27,0,0,1-5.041,1.738q-3.129,1.043-12.168,3.477t-18.426,4.867q-9.561,2.434-16.687,4.346-7.127,2.086-7.475,2.607-.348.174-1.043,2.781-.869,2.607-1.912,7.127-2.26,8.344-5.389,21.381-3.129,13.211-6.432,27.465-3.477,14.775-6.432,28.682-3.129,13.906-4.867,23.119Q496.627-6.258,495.41-.7a47.694,47.694,0,0,1-1.912,7.3q-1.912,5.91-4.693,7.3a3.086,3.086,0,0,1-1.391.348Q485.676,14.254,484.111,11.473Zm61.535-31.289q-1.738-2.781-1.738-9.039a17.184,17.184,0,0,1,.174-2.434,160.646,160.646,0,0,1,2.955-21.9q1.738-9.039,2.781-12.689a11.773,11.773,0,0,1,2.434-4.867q2.086-2.086,3.477-2.086h.7a7.755,7.755,0,0,1,3.129,1.564,4.667,4.667,0,0,1,1.912,2.086,5.788,5.788,0,0,1,.869,2.607,62.627,62.627,0,0,1-.7,6.605q-.869,4.867-2.086,11.125-1.738,9.213-3.824,18.426-2.26,9.039-3.3,10.951-1.391,2.434-3.3,2.434Q547.211-17.209,545.646-19.816Zm9.908-66.055a8.517,8.517,0,0,1-2.086-2.955,6.526,6.526,0,0,1,.869-3.3,5.848,5.848,0,0,1,5.215-4q4-.348,5.736,2.607A9.653,9.653,0,0,1,566.68-89.7q0,2.607-2.781,4.693a5.371,5.371,0,0,1-4.346,1.564A7.108,7.108,0,0,1,555.555-85.871ZM621.783-129.5v.7a49.648,49.648,0,0,1-.7,8.17q-1.043,4.693-2.781,12.689-.869,4.346-2.086,9.908Q615-92.3,613.439-84.828q-.869,5.215-1.738,9.734-.869,4.693-1.738,9.213-1.391,8.17-2.781,16.861-1.217,8.865-3.129,21.033-2.086,14.6-5.389,20.512-3.129,5.562-4.867,5.563a.5.5,0,0,1-.348-.174q-2.086-.869-2.607-4.693a38.252,38.252,0,0,1-.521-8.17,36.926,36.926,0,0,1,.348-5.215q.174-2.434.348-3.65.521-4.172.869-7.475.348-3.129.348-3.477,0-.174-1.564,1.391-1.564,1.738-3.824,4.346a38.414,38.414,0,0,1-8.691,8,17.8,17.8,0,0,1-8.344,2.781q-8.518.174-12.342-8.518a23.047,23.047,0,0,1-1.912-9.387,35.549,35.549,0,0,1,1.738-10.6,57.837,57.837,0,0,1,9.039-17.035q6.258-8.17,12.168-10.777a16.9,16.9,0,0,1,7.822-1.564,14.951,14.951,0,0,1,7.3,2.086,12.906,12.906,0,0,0,2.607,1.564q1.043.7,1.217.521a37.377,37.377,0,0,0,1.217-4.693q1.217-4.52,2.434-10.777,1.391-6.258,3.3-13.732t3.3-11.82q1.217-4.172,2.955-9.387,1.912-5.215,3.65-9.561a22.6,22.6,0,0,1,2.086-4.172,2.79,2.79,0,0,1,1.912-1.217q1.564.174,2.434,2.955A26.548,26.548,0,0,1,621.783-129.5ZM578.5-58.232a39.639,39.639,0,0,0-8,13.559q-2.955,7.822-1.391,11.82.7,1.391,1.391,1.217a12.015,12.015,0,0,0,3.477-2.26,32.082,32.082,0,0,0,3.65-4.172q2.607-3.3,4.867-6.779a72.492,72.492,0,0,0,4.693-8.17,9.676,9.676,0,0,0,.521-5.041,8.845,8.845,0,0,0-.869-3.65,2.016,2.016,0,0,0-1.738-1.217,5.434,5.434,0,0,0-2.781,1.217A23.4,23.4,0,0,0,578.5-58.232Zm76.832-28.334a8.248,8.248,0,0,1,2.434,2.781,10.361,10.361,0,0,1,.521,3.824,14.027,14.027,0,0,1-1.564,6.953A22.016,22.016,0,0,1,651.16-66.4a34.733,34.733,0,0,1-8.865,5.389,24.906,24.906,0,0,1-9.387,2.26,11.354,11.354,0,0,0-3.3.348,5.488,5.488,0,0,0-1.738,2.086,37.458,37.458,0,0,0-3.129,10.43A45.271,45.271,0,0,0,623.7-34.07q.174,6.258,1.564,7.475t5.91-1.043A56.615,56.615,0,0,0,641.426-33.9a113.506,113.506,0,0,0,12.516-10.6q11.3-10.777,18.252-18.078,7.127-7.3,9.039-6.953a1.731,1.731,0,0,1,1.217,1.912q.174,2.086-1.912,6.258A99.123,99.123,0,0,1,669.064-44.5a140.347,140.347,0,0,1-14.775,15.818,101.387,101.387,0,0,1-12.342,9.908,36.009,36.009,0,0,1-12.168,5.389,14.478,14.478,0,0,1-3.824.521,13.4,13.4,0,0,1-5.736-1.217,13.184,13.184,0,0,1-2.781-1.738,17.869,17.869,0,0,1-2.607-2.434,19.778,19.778,0,0,1-3.824-7.822,37.643,37.643,0,0,1-.869-8.344,12.666,12.666,0,0,1,.174-2.086,65,65,0,0,1,5.041-22.076A56.831,56.831,0,0,1,627.52-78.049a44.124,44.124,0,0,1,10.777-8.17A21.857,21.857,0,0,1,648.205-89a10.208,10.208,0,0,1,3.824.7A8.22,8.22,0,0,1,655.332-86.566Zm-15.3,10.951q-5.91,5.215-5.562,6.953.174,1.564,6.605-1.564a21.246,21.246,0,0,0,5.563-4q2.26-2.26,2.26-4a1.17,1.17,0,0,0-.521-1.043,1.7,1.7,0,0,0-1.217-.348,9.963,9.963,0,0,0-3.129,1.217A15.675,15.675,0,0,0,640.035-75.615ZM662.98,18.078a21.047,21.047,0,0,1-9.561-9.734,24.177,24.177,0,0,1-2.607-10.951q0-1.564.174-3.3,1.043-8,6.779-16.34,5.91-8.344,12.863-11.473a21.341,21.341,0,0,1,8-1.738,12.741,12.741,0,0,1,6.605,1.391,4.94,4.94,0,0,1,1.912,2.26q.174,1.043-1.391,1.043-2.086,0-5.91,2.434a31.116,31.116,0,0,0-6.605,5.563,37.135,37.135,0,0,0-8.344,15.3q-2.086,8,1.564,11.82a7.29,7.29,0,0,0,2.781,2.086,19.6,19.6,0,0,0,4.346.348,22.962,22.962,0,0,0,13.385-4.52A36.444,36.444,0,0,0,697.746-9.213a36.142,36.142,0,0,0,3.824-8,30.686,30.686,0,0,0,1.564-8.518q.348-7.3-1.912-11.473-2.434-4.172-11.125-12.342-9.039-8.344-11.82-13.211T675.5-75.094a32.969,32.969,0,0,1,.521-6.605,27.1,27.1,0,0,1,2.086-5.736A38.42,38.42,0,0,1,690.1-101.863q6.953-5.041,13.037-5.041a8.844,8.844,0,0,1,1.738.174,8.709,8.709,0,0,1,4,1.043A9.585,9.585,0,0,1,712-103.254a10.87,10.87,0,0,1,2.434,4.52,4.454,4.454,0,0,1-1.043,3.824,1.345,1.345,0,0,1-1.217.348,5.5,5.5,0,0,1-1.912-1.217,4.672,4.672,0,0,0-4.346-1.391q-2.434.348-6.605,3.65a30.207,30.207,0,0,0-7.127,7.648,23.053,23.053,0,0,0-3.65,8.518,13.006,13.006,0,0,0,1.738,8.865q2.26,3.824,10.6,11.646,9.039,8.518,11.994,13.732t3.3,13.732a18.458,18.458,0,0,1,.174,2.607,42.862,42.862,0,0,1-3.3,16.514A53.258,53.258,0,0,1,701.4,6.953a48.6,48.6,0,0,1-12.863,9.561,36.071,36.071,0,0,1-13.906,3.3h-2.955a34.574,34.574,0,0,1-4-.174A15.967,15.967,0,0,1,662.98,18.078Z" transform="translate(628 1549)" fill="#fff"/><g transform="translate(-19164.516 -8802.707)"><path d="M20495,10225.7v4.973" transform="translate(0 0.007)" fill="none" stroke="#fff" stroke-linecap="round" stroke-width="7"/><g transform="translate(13263.558 -11484.668) rotate(45)"><path d="M20495,10225.7v4.973" transform="translate(0 0.007)" fill="none" stroke="#fff" stroke-linecap="round" stroke-width="7"/></g><g transform="translate(30763.195 -10226.804) rotate(90)"><path d="M20495,10225.7v4.973" transform="translate(0 0.007)" fill="none" stroke="#fff" stroke-linecap="round" stroke-width="7"/></g><g transform="translate(42247.863 3036.755) rotate(135)"><path d="M20495,10225.7v4.973" transform="translate(0 0.007)" fill="none" stroke="#fff" stroke-linecap="round" stroke-width="7"/><path d="M20495,10225.7v4.973" transform="translate(0 80.007)" fill="none" stroke="#fff" stroke-linecap="round" stroke-width="7"/></g></g></g></svg>