<svg xmlns="http://www.w3.org/2000/svg" viewBox="0 0 335.5 297.45"><defs><style>.cls-1{fill:#fff;}</style></defs><title>LOGO_head</title><g id="图层_2" data-name="图层 2"><g id="图层_1-2" data-name="图层 1"><polygon class="cls-1" points="33.6 248.47 33.58 248.2 33.57 247.94 33.54 247.65 33.51 247.39 33.48 247.13 33.44 246.85 33.39 246.59 33.34 246.33 33.29 246.07 33.23 245.81 33.16 245.55 33.09 245.29 33.01 245.04 32.93 244.79 32.85 244.54 32.76 244.29 32.57 243.8 32.37 243.32 32.15 242.85 31.91 242.39 31.67 241.93 30.65 240.14 28.67 236.62 26.81 233.05 25.06 229.41 23.45 225.71 21.95 221.97 20.59 218.17 19.35 214.33 18.25 210.46 17.28 206.54 16.43 202.6 15.72 198.63 15.15 194.64 14.71 190.62 14.4 186.6 14.23 182.58 14.2 178.54 14.3 174.52 14.53 170.49 14.91 166.47 15.41 162.47 16.06 158.49 16.83 154.53 17.74 150.6 18.23 148.57 18.33 148.08 18.41 147.59 18.48 147.11 18.5 146.88 18.54 146.65 18.55 146.42 18.57 146.19 18.57 145.97 18.57 145.75 18.57 145.53 18.55 145.32 18.54 145.11 18.52 144.9 18.48 144.7 18.45 144.5 18.43 144.4 18.41 144.31 18.39 144.21 18.36 144.12 18.34 144.02 18.31 143.93 18.27 143.84 18.25 143.75 18.2 143.66 18.18 143.57 18.14 143.49 18.09 143.4 18.06 143.32 18.02 143.23 17.98 143.15 17.93 143.07 17.89 142.99 17.84 142.91 17.79 142.84 17.74 142.76 17.69 142.69 17.63 142.61 17.58 142.54 17.52 142.47 17.46 142.4 17.4 142.34 17.34 142.27 17.27 142.2 17.21 142.14 17.14 142.08 17.08 142.02 17.01 141.96 16.94 141.9 16.86 141.84 16.79 141.78 16.71 141.73 16.64 141.68 16.56 141.63 16.48 141.58 16.4 141.53 16.32 141.48 16.24 141.43 16.15 141.39 16.07 141.35 15.98 141.3 15.89 141.26 15.8 141.23 15.71 141.19 15.62 141.15 15.53 141.12 15.34 141.05 15.15 141 14.95 140.94 14.75 140.9 14.55 140.85 14.34 140.82 14.13 140.79 13.92 140.77 13.7 140.75 13.48 140.74 13.26 140.74 13.04 140.74 12.81 140.74 12.59 140.76 12.36 140.78 12.13 140.8 11.9 140.83 11.67 140.87 11.44 140.91 11.21 140.96 10.98 141.02 10.75 141.08 10.52 141.14 10.29 141.22 10.06 141.29 9.83 141.38 9.6 141.47 9.38 141.56 9.15 141.66 8.93 141.77 8.71 141.88 8.5 142 8.28 142.12 8.07 142.25 7.86 142.38 7.66 142.52 7.45 142.66 7.25 142.81 7.06 142.96 6.88 143.12 6.68 143.28 6.5 143.45 6.32 143.62 6.15 143.8 5.97 143.98 5.81 144.16 5.63 144.35 5.47 144.55 5.33 144.74 5.18 144.95 5.04 145.15 4.9 145.36 4.76 145.57 4.63 145.79 4.5 146.01 4.38 146.23 4.27 146.46 4.15 146.69 4.05 146.92 3.94 147.15 3.85 147.39 3.75 147.63 3.66 147.87 3.5 148.36 3.34 148.86 3.2 149.37 3.08 149.88 2.96 150.4 2.75 151.43 1.88 156.26 1.17 161.11 0.63 165.98 0.25 170.87 0.05 175.78 0 180.67 0.13 185.58 0.42 190.47 0.88 195.35 1.51 200.21 2.3 205.06 3.25 209.87 4.37 214.64 5.65 219.38 7.08 224.06 8.68 228.7 10.44 233.28 12.35 237.79 14.41 242.24 16.62 246.62 18.98 250.91 21.48 255.13 22.03 256 22.31 256.42 22.59 256.83 22.87 257.23 23.02 257.41 23.17 257.6 23.31 257.78 23.46 257.95 23.61 258.11 23.77 258.27 23.92 258.43 24.08 258.57 24.23 258.71 24.39 258.84 24.55 258.96 24.63 259.01 24.71 259.07 24.79 259.13 24.87 259.19 24.95 259.24 25.04 259.29 25.12 259.32 25.2 259.38 25.28 259.42 25.37 259.45 25.45 259.5 25.53 259.52 25.62 259.56 25.7 259.6 25.79 259.63 25.87 259.64 25.95 259.68 26.04 259.69 26.13 259.72 26.21 259.74 26.3 259.75 26.38 259.76 26.47 259.77 26.55 259.78 26.64 259.8 26.73 259.8 26.81 259.8 26.9 259.8 26.99 259.8 27.07 259.8 27.16 259.78 27.25 259.77 27.34 259.76 27.42 259.75 27.51 259.74 27.6 259.72 27.68 259.69 27.77 259.68 27.86 259.65 27.94 259.63 28.03 259.6 28.12 259.56 28.2 259.54 28.29 259.51 28.38 259.46 28.46 259.43 28.55 259.38 28.64 259.34 28.72 259.3 28.81 259.25 28.89 259.2 28.98 259.14 29.06 259.1 29.15 259.04 29.23 258.98 29.32 258.92 29.48 258.8 29.65 258.67 29.81 258.52 29.97 258.38 30.13 258.23 30.29 258.06 30.45 257.89 30.59 257.72 30.75 257.54 30.89 257.35 31.05 257.16 31.18 256.96 31.32 256.75 31.46 256.54 31.59 256.33 31.72 256.11 31.85 255.88 31.98 255.65 32.1 255.41 32.21 255.18 32.32 254.93 32.43 254.69 32.54 254.44 32.64 254.18 32.73 253.93 32.82 253.67 32.91 253.4 32.99 253.14 33.07 252.87 33.14 252.6 33.21 252.33 33.27 252.06 33.33 251.79 33.38 251.51 33.43 251.24 33.47 250.96 33.5 250.68 33.53 250.41 33.56 250.13 33.58 249.85 33.59 249.58 33.6 249.3 33.61 249.02 33.6 248.75 33.6 248.47"/><polygon class="cls-1" points="127.03 92.11 127 91.54 126.95 90.97 126.9 90.42 126.84 89.85 126.76 89.28 126.67 88.72 126.58 88.15 126.47 87.59 126.35 87.03 126.22 86.47 126.09 85.92 125.94 85.36 125.79 84.81 125.62 84.26 125.44 83.72 125.26 83.18 125.06 82.64 124.84 82.11 124.62 81.58 124.38 81.06 124.13 80.55 123.86 80.05 123.58 79.55 123.28 79.06 122.97 78.58 122.64 78.11 122.47 77.89 122.29 77.67 122.11 77.44 121.93 77.22 121.74 77 121.54 76.79 121.35 76.57 121.14 76.36 120.93 76.16 120.72 75.96 120.51 75.76 120.29 75.56 120.06 75.37 119.83 75.19 119.6 75.01 119.37 74.83 119.13 74.67 118.89 74.5 118.64 74.34 118.4 74.19 118.15 74.05 117.9 73.91 117.64 73.78 117.38 73.65 117.13 73.53 116.86 73.42 116.6 73.32 116.34 73.22 116.08 73.13 115.81 73.06 115.54 72.99 115.28 72.92 115.01 72.87 114.74 72.83 114.47 72.79 114.33 72.78 114.2 72.77 114.06 72.76 113.92 72.75 113.79 72.75 113.65 72.75 113.52 72.75 113.38 72.75 113.24 72.76 113.11 72.77 112.97 72.78 112.84 72.8 112.56 72.83 112.29 72.88 112.02 72.93 111.76 72.99 111.49 73.06 111.22 73.14 110.96 73.23 110.69 73.33 110.43 73.43 110.17 73.54 109.91 73.66 109.66 73.79 109.4 73.92 109.15 74.06 108.9 74.21 108.65 74.36 108.41 74.52 108.17 74.68 107.93 74.85 107.7 75.03 107.47 75.21 107.24 75.4 107.02 75.59 106.8 75.78 106.58 75.98 106.37 76.18 106.16 76.39 105.96 76.6 105.76 76.81 105.57 77.03 105.38 77.25 105.2 77.47 105.02 77.69 104.84 77.92 104.67 78.16 104.34 78.61 104.03 79.09 103.74 79.58 103.47 80.08 103.19 80.59 102.94 81.1 102.7 81.62 102.49 82.15 102.28 82.68 102.08 83.22 101.9 83.76 101.72 84.3 101.56 84.85 101.4 85.4 101.26 85.96 101.12 86.51 101 87.07 100.88 87.63 100.78 88.2 100.68 88.76 100.6 89.33 100.52 89.89 100.46 90.45 100.41 91.02 100.36 91.59 100.33 92.16 100.3 92.73 100.29 93.3 100.28 93.87 100.29 94.45 100.31 95.02 100.33 95.59 100.37 96.16 100.42 96.73 100.47 97.3 100.54 97.87 100.62 98.43 100.7 99 100.8 99.56 100.91 100.12 101.02 100.68 101.15 101.24 101.29 101.8 101.43 102.35 101.59 102.89 101.75 103.44 101.92 103.99 102.12 104.53 102.31 105.06 102.53 105.6 102.75 106.12 102.98 106.64 103.25 107.15 103.5 107.66 103.78 108.15 104.08 108.64 104.4 109.12 104.73 109.59 104.9 109.82 105.07 110.05 105.25 110.27 105.44 110.49 105.63 110.71 105.82 110.93 106.02 111.14 106.22 111.35 106.43 111.56 106.64 111.76 106.86 111.96 107.08 112.15 107.3 112.34 107.53 112.52 107.76 112.7 108 112.88 108.24 113.05 108.48 113.21 108.72 113.37 108.97 113.52 109.22 113.67 109.47 113.81 109.72 113.94 109.98 114.06 110.24 114.18 110.5 114.29 110.76 114.39 111.03 114.48 111.29 114.58 111.56 114.66 111.83 114.72 112.1 114.78 112.37 114.83 112.64 114.89 112.91 114.91 113.04 114.92 113.18 114.94 113.32 114.94 113.45 114.95 113.59 114.95 113.72 114.95 113.86 114.95 114 114.95 114.13 114.94 114.27 114.93 114.39 114.92 114.54 114.91 114.81 114.88 115.08 114.83 115.35 114.77 115.61 114.72 115.88 114.64 116.15 114.56 116.41 114.47 116.67 114.39 116.94 114.28 117.2 114.16 117.45 114.05 117.71 113.92 117.96 113.79 118.22 113.64 118.46 113.5 118.71 113.35 118.95 113.19 119.2 113.03 119.43 112.86 119.67 112.68 119.9 112.5 120.13 112.32 120.35 112.13 120.57 111.93 120.78 111.73 121 111.53 121.2 111.32 121.41 111.11 121.6 110.9 121.8 110.68 121.99 110.46 122.17 110.24 122.35 110.02 122.52 109.79 122.69 109.56 123.02 109.09 123.33 108.61 123.63 108.12 123.91 107.62 124.17 107.12 124.42 106.6 124.66 106.08 124.88 105.56 125.09 105.02 125.29 104.49 125.48 103.95 125.65 103.4 125.81 102.86 125.97 102.31 126.12 101.76 126.25 101.2 126.38 100.64 126.49 100.08 126.59 99.52 126.69 98.95 126.78 98.39 126.84 97.82 126.92 97.25 126.97 96.68 127 96.11 127.05 95.54 127.06 94.97 127.08 94.4 127.08 93.83 127.08 93.26 127.06 92.69 127.03 92.11"/><polygon class="cls-1" points="199.56 101.65 199.7 101.65 199.82 101.66 199.97 101.66 200.09 101.66 200.23 101.66 200.38 101.66 200.5 101.65 200.64 101.64 200.78 101.63 200.91 101.62 201.19 101.58 201.45 101.54 201.72 101.48 201.99 101.42 202.26 101.35 202.52 101.27 202.79 101.18 203.05 101.09 203.31 100.98 203.57 100.87 203.83 100.75 204.09 100.62 204.34 100.49 204.6 100.35 204.84 100.2 205.09 100.05 205.33 99.89 205.57 99.73 205.81 99.56 206.05 99.38 206.28 99.2 206.5 99.02 206.73 98.83 206.95 98.63 207.16 98.43 207.37 98.23 207.58 98.02 207.78 97.81 207.98 97.6 208.18 97.38 208.36 97.17 208.55 96.94 208.73 96.72 208.9 96.49 209.07 96.26 209.4 95.79 209.71 95.31 210.01 94.82 210.29 94.32 210.55 93.82 210.8 93.3 211.04 92.78 211.25 92.26 211.47 91.72 211.66 91.19 211.85 90.65 212.02 90.11 212.19 89.56 212.35 89.01 212.5 88.46 212.63 87.9 212.75 87.34 212.87 86.78 212.97 86.22 213.06 85.65 213.15 85.09 213.22 84.52 213.28 83.95 213.34 83.38 213.38 82.81 213.42 82.24 213.44 81.67 213.46 81.1 213.46 80.53 213.45 79.96 213.44 79.39 213.41 78.81 213.38 78.25 213.33 77.67 213.27 77.12 213.21 76.55 213.13 75.98 213.04 75.42 212.95 74.85 212.84 74.29 212.72 73.73 212.6 73.17 212.47 72.62 212.31 72.06 212.17 71.51 212 70.96 211.81 70.42 211.63 69.88 211.43 69.34 211.22 68.81 211 68.28 210.76 67.76 210.51 67.25 210.24 66.75 209.96 66.25 209.66 65.77 209.35 65.29 209.02 64.82 208.85 64.59 208.67 64.37 208.49 64.14 208.31 63.92 208.12 63.7 207.92 63.49 207.72 63.27 207.52 63.06 207.31 62.86 207.1 62.66 206.89 62.46 206.66 62.26 206.44 62.07 206.21 61.89 205.98 61.71 205.75 61.54 205.51 61.37 205.27 61.2 205.02 61.04 204.78 60.89 204.53 60.75 204.27 60.61 204.02 60.48 203.76 60.35 203.5 60.23 203.24 60.12 202.98 60.02 202.72 59.92 202.45 59.83 202.19 59.76 201.92 59.69 201.65 59.62 201.38 59.57 201.11 59.53 200.84 59.49 200.71 59.48 200.56 59.47 200.43 59.46 200.29 59.45 200.16 59.45 200.03 59.45 199.88 59.45 199.75 59.45 199.62 59.46 199.49 59.47 199.35 59.48 199.21 59.5 198.94 59.53 198.67 59.58 198.4 59.63 198.13 59.69 197.87 59.76 197.6 59.84 197.34 59.93 197.07 60.03 196.81 60.13 196.55 60.24 196.29 60.36 196.03 60.49 195.78 60.62 195.53 60.76 195.28 60.91 195.03 61.06 194.79 61.22 194.55 61.38 194.31 61.55 194.08 61.73 193.85 61.91 193.62 62.1 193.4 62.29 193.18 62.48 192.96 62.68 192.75 62.88 192.54 63.09 192.34 63.3 192.14 63.51 191.95 63.73 191.76 63.95 191.58 64.17 191.4 64.4 191.22 64.62 191.05 64.86 190.72 65.32 190.41 65.8 190.11 66.28 189.83 66.78 189.57 67.29 189.32 67.8 189.08 68.32 188.86 68.85 188.66 69.38 188.45 69.92 188.28 70.46 188.09 71 187.93 71.55 187.78 72.1 187.64 72.66 187.5 73.21 187.38 73.77 187.26 74.33 187.16 74.9 187.06 75.46 186.97 76.03 186.9 76.59 186.84 77.16 186.78 77.72 186.74 78.3 186.71 78.86 186.68 79.43 186.67 80 186.66 80.57 186.67 81.15 186.69 81.72 186.71 82.29 186.75 82.86 186.79 83.43 186.85 84 186.92 84.57 186.99 85.13 187.08 85.7 187.18 86.26 187.27 86.82 187.4 87.38 187.53 87.94 187.65 88.5 187.81 89.05 187.97 89.6 188.13 90.14 188.31 90.69 188.49 91.23 188.69 91.76 188.9 92.3 189.13 92.82 189.36 93.34 189.62 93.85 189.88 94.36 190.16 94.85 190.46 95.34 190.77 95.82 191.1 96.29 191.28 96.52 191.45 96.75 191.63 96.97 191.82 97.19 192.01 97.41 192.2 97.63 192.4 97.84 192.6 98.05 192.81 98.26 193.02 98.46 193.24 98.66 193.46 98.85 193.68 99.04 193.91 99.22 194.14 99.4 194.38 99.58 194.62 99.75 194.86 99.91 195.1 100.07 195.35 100.22 195.6 100.37 195.85 100.51 196.1 100.64 196.36 100.76 196.62 100.88 196.88 100.99 197.14 101.1 197.41 101.19 197.67 101.28 197.94 101.36 198.21 101.43 198.48 101.48 198.75 101.54 199.02 101.59 199.29 101.62 199.41 101.63 199.56 101.65"/><polygon class="cls-1" points="335.36 155.92 335.07 151.4 334.63 146.91 334.52 145.99 334.46 145.54 334.38 145.08 334.3 144.63 334.2 144.17 334.08 143.73 334.02 143.5 333.95 143.28 333.88 143.06 333.81 142.84 333.73 142.62 333.63 142.4 333.55 142.18 333.45 141.97 333.35 141.75 333.25 141.54 333.13 141.33 333.02 141.12 332.9 140.92 332.79 140.71 332.65 140.51 332.52 140.31 332.38 140.11 332.24 139.91 332.09 139.72 331.94 139.53 331.78 139.34 331.62 139.16 331.46 138.97 331.29 138.79 331.11 138.62 330.94 138.44 330.76 138.28 330.57 138.11 330.38 137.94 330.19 137.79 330 137.63 329.8 137.48 329.6 137.33 329.4 137.19 329.19 137.04 328.99 136.91 328.78 136.77 328.57 136.65 328.35 136.52 328.14 136.4 327.92 136.29 327.71 136.18 327.49 136.07 327.27 135.97 327.05 135.87 326.84 135.78 326.62 135.7 326.4 135.62 326.18 135.54 325.97 135.47 325.75 135.41 325.53 135.35 325.32 135.29 325.11 135.24 324.9 135.2 324.69 135.16 324.49 135.13 324.28 135.11 324.08 135.09 323.88 135.07 323.69 135.06 323.5 135.06 323.31 135.06 323.12 135.07 322.94 135.09 322.85 135.1 322.76 135.11 322.68 135.12 322.6 135.14 322.51 135.15 322.42 135.17 322.34 135.19 322.26 135.21 322.18 135.23 322.1 135.25 322.02 135.28 321.94 135.3 321.87 135.33 321.8 135.36 321.72 135.39 321.65 135.42 321.58 135.46 321.51 135.49 321.44 135.53 321.37 135.57 321.31 135.61 321.25 135.65 321.18 135.69 321.13 135.74 321.06 135.78 321 135.83 320.94 135.88 320.89 135.93 320.83 135.98 320.78 136.03 320.73 136.09 320.68 136.14 320.63 136.2 320.59 136.26 320.54 136.32 320.49 136.38 320.44 136.44 320.4 136.51 320.37 136.57 320.33 136.64 320.29 136.71 320.25 136.77 320.21 136.85 320.19 136.92 320.16 136.99 320.13 137.07 320.1 137.14 320.06 137.22 320.05 137.3 320.02 137.38 320 137.46 319.98 137.53 319.96 137.62 319.94 137.71 319.92 137.79 319.89 137.88 319.88 138.06 319.85 138.24 319.82 138.41 319.82 138.6 319.81 138.79 319.81 139 319.81 139.19 319.82 139.4 319.82 139.6 319.86 140.03 319.89 140.46 320.02 141.35 320.16 142.26 320.74 146.47 321.16 150.69 321.45 154.94 321.6 159.19 321.6 163.44 321.46 167.68 321.18 171.92 320.76 176.15 320.19 180.36 319.48 184.55 318.63 188.72 317.64 192.85 316.51 196.95 315.24 201 313.84 205.01 312.3 208.98 310.63 212.88 308.83 216.73 306.91 220.52 304.86 224.23 303.97 225.81 303.76 226.22 303.55 226.63 303.36 227.05 303.19 227.47 303.02 227.9 302.87 228.33 302.8 228.56 302.73 228.78 302.67 229 302.61 229.23 302.56 229.46 302.51 229.69 302.46 229.92 302.42 230.15 302.38 230.38 302.35 230.62 302.32 230.85 302.3 231.09 302.28 231.33 302.27 231.57 302.26 231.81 302.25 232.05 302.25 232.29 302.26 232.53 302.27 232.77 302.28 233.01 302.3 233.25 302.32 233.49 302.35 233.73 302.38 233.97 302.42 234.21 302.46 234.45 302.51 234.69 302.55 234.93 302.61 235.16 302.67 235.39 302.73 235.62 302.8 235.84 302.87 236.07 302.94 236.29 303.02 236.52 303.1 236.74 303.19 236.95 303.28 237.17 303.37 237.38 303.47 237.58 303.57 237.78 303.67 237.98 303.78 238.18 303.89 238.37 304 238.56 304.11 238.74 304.23 238.91 304.35 239.09 304.48 239.25 304.6 239.41 304.73 239.57 304.86 239.72 304.99 239.87 305.13 240.01 305.26 240.14 305.4 240.26 305.54 240.39 305.68 240.5 305.82 240.61 305.9 240.66 305.97 240.71 306.04 240.75 306.11 240.8 306.19 240.85 306.26 240.89 306.33 240.93 306.41 240.97 306.48 241 306.55 241.04 306.63 241.07 306.7 241.11 306.78 241.14 306.85 241.16 306.93 241.19 307 241.21 307.08 241.24 307.14 241.26 307.23 241.28 307.3 241.29 307.38 241.31 307.45 241.32 307.52 241.33 307.61 241.34 307.68 241.35 307.76 241.35 307.83 241.36 307.9 241.36 307.98 241.36 308.06 241.36 308.14 241.35 308.21 241.35 308.29 241.34 308.36 241.33 308.43 241.32 308.5 241.3 308.59 241.29 308.65 241.27 308.74 241.25 308.81 241.23 308.88 241.21 308.95 241.18 309.03 241.15 309.11 241.12 309.18 241.09 309.25 241.06 309.32 241.03 309.4 240.99 309.48 240.95 309.55 240.91 309.62 240.87 309.69 240.83 309.76 240.78 309.83 240.74 309.91 240.69 309.98 240.64 310.12 240.53 310.26 240.42 310.4 240.3 310.54 240.17 310.68 240.04 310.82 239.91 310.96 239.76 311.09 239.62 311.23 239.46 311.36 239.31 311.49 239.14 311.76 238.81 312.02 238.46 312.27 238.09 312.78 237.35 315.22 233.55 317.54 229.66 319.73 225.7 321.77 221.68 323.69 217.58 325.47 213.41 327.11 209.21 328.61 204.93 329.96 200.61 331.17 196.26 332.24 191.86 333.14 187.43 333.91 182.98 334.53 178.49 335 174 335.31 169.49 335.48 164.96 335.5 160.45 335.36 155.92"/><path class="cls-1" d="M303.63,203.94l.72-2.11.68-2.12.64-2.12.6-2.14.56-2.15.52-2.16.48-2.17.45-2.17.39-2.19.36-2.19.33-2.2.27-2.2.25-2.21.18-2.2.16-2.21.11-2.21.07-2.22,0-2.21,0-2.21-.06-2.21-.1-2.21-.15-2.2-.2-2.2-.23-2.2-.29-2.18-.33-2.19-.37-2.17-.42-2.17-.46-2.16-.51-2.16-.55-2.13-.59-2.13-.64-2.11-.68-2.11-.72-2.1-.77-2.07-.8-2.06-.84-2.05-.88-2-.92-2-1-2-1-2-1-2-1.06-1.95-1.11-1.93L293.59,106l-1.17-1.89-1.21-1.86L290,100.36l-1.28-1.82-1.31-1.79L286,95l-1.36-1.74-1.41-1.73-1.43-1.68-1.47-1.67-1.5-1.64-1.52-1.61-2-2.05-2.07-2-2.1-1.95L269,77l-2.2-1.86-2.24-1.8-2.28-1.75L260,69.9l-2.35-1.65-2.39-1.6L252.8,65.1l-2.45-1.49-2.48-1.45-2.52-1.4-2.55-1.35-2.58-1.29-.66-2.87-.73-2.82-.81-2.8-.88-2.75-.55-1.56L236,43.78l-.59-1.52-.62-1.51-.64-1.48-.67-1.47-.69-1.45-.71-1.44-.74-1.4-.75-1.39-.78-1.37-.8-1.34-.82-1.32-.83-1.3-.86-1.27-.88-1.26L224.76,23l-.9-1.21-.93-1.17-1-1.16-1-1.12-1-1.09-1-1.07-1-1-1-1-1-1-1-1-1.06-.93-1.08-.89-1.09-.87-1.09-.84-1.11-.8-1.12-.77-1.14-.74-1.14-.7L204.94,5l-1.16-.63-1.18-.6-1.19-.55-1.2-.52L199,2.25l-1.22-.43-.62-.2-.62-.19-.62-.18-.63-.17-.63-.15L194,.78l-.64-.13-.63-.12-.65-.11-.64-.09-.65-.09-.65-.07-.65-.06-.66,0-.66,0-.66,0h-1.33l-.68,0-.67,0-.68,0-.69.06-.68.08-.69.08-.7.11-.69.11L180,.67l-.7.15-.71.16-.71.17-.71.19-.71.2-.72.22L175,2l-.73.25-.73.27-1.48.58-1.48.64-1.51.71-1.51.78-1.21.66-1.22.7L164,7.35l-1.24.81L161.46,9,160.2,10l-1.27,1L157.65,12l-1.29,1.15-1.3,1.21-1.32,1.3-1.32,1.38-1.33,1.47-1.35,1.56-1.36,1.66L147,23.52l-1.36-1.45-1.37-1.38-1.38-1.32-1.38-1.24-1.37-1.19-1.36-1.12-1.36-1.05-1.35-1-1-.66-.95-.62-1-.57-.95-.54-.94-.49-.48-.23-.47-.22-.47-.21-.47-.2-.47-.19-.48-.18L128,9.53l-.46-.16-.48-.14-.47-.13L126.11,9l-.48-.11-.48-.1-.48-.09-.48-.07-.48-.06-.48-.05-.49,0-.49,0-.48,0h-1l-.5,0-.5,0-.5,0-.51.06-.5.08-.52.09-.51.1-.52.11-.52.13-.53.14-.53.15-.53.17-.54.18-.54.19-.55.21-.55.22-.56.24-.56.25-1.14.54L109,12l-1.18.66-1.21.71-1.24.77-1.26.83-1.28.89-1,.75-1,.78-1.06.82-1.08.88L97.54,20l-1.09,1-1.1,1.05-1.11,1.11-1.11,1.18L92,25.6l-1.11,1.33-1.1,1.41L88.7,29.83,87.6,31.4l-1.1,1.67-1.09,1.77-1.07,1.87-1.07,2-1,2.08-1,2.18-1,2.3-1,2.42-1,2.55-1,2.67-.94,2.79-.91,2.93-.88,3.07-.85,3.22-.83,3.35L72,71.75l-1.47,7.47-2.73,2.34L65.17,84l-2.61,2.48L60,89l-2.48,2.59-2.4,2.67L52.79,97l-2.27,2.78-2.19,2.83-2.12,2.9-2,3-1.94,3-1.87,3.06-1.78,3.11-1.68,3.16L35.31,124l-.94,2-.9,2-.87,2.05-.83,2.06L31,134.2l-.74,2.09-.72,2.1-.68,2.11-.64,2.13-.6,2.14L27,146.93l-.52,2.16L26,151.25l-.44,2.18-.4,2.18-.36,2.2L24.51,160l-.28,2.2L24,164.4l-.19,2.21-.16,2.21L23.53,171l-.07,2.21,0,2.21v2.21l.06,2.21.11,2.21.15,2.21.19,2.2.24,2.19.29,2.19.33,2.18.37,2.18.42,2.17.47,2.16.5,2.14.56,2.14.59,2.13.64,2.12.68,2.11.72,2.08.76,2.08.8,2.07.84,2.05.88,2,.92,2,1,2,1,2,1,2L38,230.44l1.1,1.93,1.15,1.9,1.17,1.89L42.66,238l1.24,1.84,1.27,1.82,1.31,1.8,1.35,1.77L49.2,247l1.41,1.71,1.43,1.7,1.47,1.67L55,253.72l1.52,1.61,1.55,1.58,1.58,1.56L61.26,260l1.64,1.5L64.56,263l1.67,1.43,3.45,2.79,3.54,2.67,3.63,2.54,3.7,2.42,3.79,2.31,3.87,2.19,3.92,2.06,4,1.93,4.06,1.82,4.1,1.69,4.16,1.57,4.21,1.45,4.23,1.32,4.28,1.19,4.31,1.07,4.33.94,4.36.82,4.39.68,4.39.57,4.42.44,4.42.32,4.43.2,4.43.08,4.43-.05,4.44-.17L174,297l4.41-.41,4.41-.53,4.39-.64,4.37-.77,4.35-.88,4.31-1,4.3-1.12,4.26-1.24L213,289l4.19-1.47,4.15-1.58,4.09-1.7,4-1.8,4-1.93,3.93-2,3.88-2.15,3.83-2.26,3.74-2.37,3.69-2.47,3.61-2.59,3.53-2.7,3.46-2.8,3.37-2.89,3.27-3,3.18-3.1L276,249l3-3.28,2.88-3.39,2.76-3.47,2.63-3.55,2.52-3.65,2.39-3.73,1.15-1.89,1.11-1.92,1.09-1.92,1-1.95,1-2,1-2,.94-2,.9-2,.87-2,.83-2.07.79-2.07ZM289,209.89l-1.19,2.57-.9,1.83L286,216.1l-.95,1.8-1,1.77-1,1.76-1.06,1.73-2.19,3.43-2.32,3.34L275,233.2l-2.54,3.18-2.62,3.11-2.74,3-2.83,2.94-2.93,2.84-3,2.75-3.09,2.67-3.18,2.57-3.24,2.47-3.31,2.37-3.39,2.28-3.44,2.17-3.5,2.08-3.55,2L228,271.49l-3.65,1.75-3.67,1.66L217,276.46l-3.75,1.44-3.77,1.35-3.8,1.23-3.81,1.13-3.81,1-3.83.91-3.83.79-3.82.68-3.83.58-3.81.46-3.8.35-3.8.24-3.8.13h-3.79l-3.77-.1-3.77-.21-3.77-.33-3.75-.43-3.75-.55-3.75-.67-3.73-.77-3.73-.88-3.73-1-3.7-1.11-3.72-1.23-3.69-1.35-3.68-1.45-3.65-1.57-3.62-1.68-3.59-1.78-3.53-1.9-3.49-2-3.44-2.12-3.38-2.23L87.2,261,84,258.6,80.82,256l-3.06-2.67L76.26,252l-1.48-1.4-1.45-1.43-1.43-1.46-1.7-1.8-1.67-1.86-1.62-1.89-1.59-1.93-1.55-2-1.5-2-1.47-2-1.42-2.07L58,230.07l-1.33-2.14-1.28-2.16-1.23-2.19L53,221.37l-1.15-2.25-1.1-2.28-1-2.3.64.28.65.27.64.25.64.24.64.22.63.22.64.19.62.19.64.17.63.16.63.15.62.13.63.12.62.11.62.1.62.08.62.08.62.06.61.05.62,0,.61,0,.61,0H64.7l1.21,0,1.21-.08,1.18-.11,1.19-.16,1.19-.19,1.17-.23,1.18-.26,1.16-.29,1.16-.32,1.15-.35,1.15-.38,1.14-.41,1.12-.43L81,214l1.13-.48,1.11-.5,2.22-1.07,2.2-1.12,1.5,2.33,1.41,2.08,1.32,1.85,1.24,1.62.59.73.58.68.55.63.54.59.52.54.5.5.49.46.47.43.45.37.44.35.43.32.41.28.4.26.2.12.19.11.19.11.19.1.18.09.18.09.18.08.17.08.17.08.17.06.34.13.32.11.31.09.3.09.3.07.3.07.55.12.27,0,.27,0,.26,0h1.34l.12,0,.12,0,.11,0,.11,0,.12,0,.11,0,.11,0,.11,0,.11,0,.11-.06.11,0,.11-.06.11-.06.11-.07.1-.07.11-.08.11-.08.11-.09.1-.09.11-.09.1-.1.11-.11.11-.11.1-.11.11-.12.1-.13.11-.13.11-.14.1-.13.22-.31.21-.33.21-.35.22-.36.22-.4.22-.43.23-.45.41-.9.42-1,.42-1.1.42-1.21.41-1.33.4-1.45.39-1.58.37-1.7.34-1.85.31-2,.28-2.16.26-2.31.19-2.49.18-2.64.12-2.83,0-3,8-5.86,7.93-5.63,4-2.66,4-2.51,2-1.19,2.05-1.15,2.06-1.1,2.07-1.05,1.78-.85,1.78-.81,1.8-.77,1.81-.74,1.81-.69,1.83-.65,1.83-.62,1.84-.58,1.84-.55,1.85-.5,1.86-.48,1.86-.43,1.86-.41,1.86-.37L177,162l3.73-.51,3.72-.37,3.69-.26,3.68-.13,3.66,0,3.62.1,3.57.21,3.54.31,2.54.29,2.52.34,2.48.4,2.47.45,2.45.52,2.43.55,2.41.62,2.38.68,2.38.73,2.37.78,2.35.84,2.33.9,2.34,1,2.33,1,2.32,1.06,2.32,1.13,0,15.74.14,5.6.2,4.35.12,1.75.14,1.53.15,1.31.16,1.13.08.5.09.46.09.43.09.39.1.37.09.34.1.32.11.3.11.3.11.28.11.26.06.13.06.12.06.11.06.11.06.11.06.11.06.1.07.09.06.1.06.08.07.09.06.08.07.07.07.08.06.07.07.06,0,0,0,0,0,0,0,0,0,0,0,0,0,0,0,0,0,0,0,0,0,0,0,0,0,0h0l0,0,0,0,0,0h0l0,0h0l0,0h.95l.09,0h.08l.09,0,.09,0,.1,0,.09,0,.09,0,.1,0,.09,0,.1,0,.1,0,.1,0,.2-.1.2-.1.21-.12.22-.12.22-.14.22-.14.23-.16.23-.16.23-.18.24-.18.5-.4.51-.45.54-.49.55-.54.57-.59.59-.63.61-.69.63-.74.65-.79,1.36-1.76,1.43-2,1.75-2.59.91-1.42.91-1.49.92-1.57.92-1.65.91-1.73.9-1.79,2.85,2.16,2.83,2.27,2.82,2.37,2.8,2.49,2.78,2.59,2.74,2.7,2.71,2.82,2.68,2.95ZM93,207.8l4.29-2.67,4.22-2.8,8.24-5.82-.28,3-.32,2.73-.36,2.46-.39,2.18-.41,1.94-.42,1.7-.21.77-.21.72-.21.66-.21.62-.31.88-.16.4-.15.37-.16.35-.15.33-.15.3-.15.28-.08.13-.07.13-.08.12-.07.11-.08.11-.08.11-.07.1-.08.09-.07.09-.08.09-.07.08-.08.08-.08.07-.07.07,0,0,0,0,0,0,0,0,0,0,0,0,0,0,0,0,0,0,0,0,0,0,0,0,0,0,0,0h0l0,0,0,0h0l0,0h0l0,0h-1.17l-.09,0-.09,0h-.1l-.09,0-.2,0-.19-.06-.21-.06-.17-.05-.18-.07-.18-.06-.18-.08-.19-.08-.2-.1-.1-.05-.1,0-.1-.06-.1-.06-.1-.06-.11-.07-.11-.07-.1-.07-.11-.08-.12-.08-.22-.18-.23-.2-.24-.21-.25-.23-.25-.26-.26-.28-.26-.3-.28-.33-.28-.35-.29-.38-.3-.41-.3-.43-.32-.47-.65-1-.7-1.16-.73-1.32ZM248.5,174.54l2.47,1.37,2.49,1.43,2.48,1.5,2.5,1.57,3.11,2.05,3.14,2.15-2.22,4.21-1.08,1.92-1,1.77-1.1,1.76-.52.79-.5.73-.48.67-.47.63-.44.57-.44.52-.41.48-.4.42-.2.21-.19.18-.19.18-.18.17-.19.16-.18.15-.17.14-.17.14-.17.12-.17.12-.17.11-.16.1-.16.09-.15.08-.08,0-.08,0-.07,0-.08,0-.07,0-.08,0-.07,0-.07,0-.08,0-.07,0-.07,0h-.9l0,0h-.06l0,0h0l0,0,0,0,0,0h0l0,0,0,0,0,0,0,0,0,0,0,0,0,0,0,0,0,0,0,0,0,0,0,0,0,0,0,0-.05-.07-.06-.07,0-.07-.05-.08-.06-.08-.05-.09,0-.09-.05-.09,0-.1-.05-.1-.05-.11,0-.11-.1-.23-.09-.26-.09-.26-.09-.29-.08-.3-.08-.33-.13-.55-.11-.62-.11-.69-.11-.77-.1-.88-.09-1-.16-2.37-.22-6.68Zm50.17-5.73-.2,3.4-.3,3.39-.4,3.37-.51,3.36-.6,3.34L296,189l-.79,3.29-.9,3.25-1,3.23-1.09,3.18L289.57,199l-2.66-2.82-2.68-2.73-2.73-2.63-2.76-2.53L276,185.85l-2.79-2.35-2.79-2.26.6-1.57.58-1.61.56-1.66.52-1.69.15-.53.08-.26,0-.13,0-.13,0-.13,0-.13,0-.13V173l0-.06v-.19l0-.06v-.25l0,0v-.06l0-.06v-.06l0-.05,0-.06,0-.05,0-.05,0,0,0-.05,0,0v0l0,0v0l0,0,0,0v0l0,0v0l0,0v0l0,0,0,0,0,0,0,0v0l0,0h0l0,0v0l0,0h0v0l0,0h0v0h-.06v0h-.06l0,0H271l0,0h-.07l0,0h0l0,0h0l0,0h0l0,0h0l0,0,0,0,0,0,0,0,0,.05,0,0,0,0,0,.05,0,0,0,.05,0,0,0,.05,0,0,0,.06,0,.05,0,.06,0,.06-.06.11-.06.12-.05.13-.11.25-.1.26-.19.53-.5,1.29-.53,1.32-1.18,2.73-5.12-3.73-5-3.44-3.27-2.1-3.22-2-3.18-1.86-3.17-1.75-3.16-1.63-3.14-1.5-3.13-1.4-3.14-1.29-3.15-1.17L225.5,156l-3.18-1-3.21-.84-3.26-.74-3.3-.63-3.33-.53-3.4-.42-3.47-.32-3.51-.21-3.56-.11h-3.61l-3.63.13-3.67.24-3.7.36-3.7.49-3.7.62-3.72.75-1.85.42-1.85.46-1.84.49-1.84.53-1.84.56-1.83.6-1.83.64-1.81.67-1.81.71-1.8.74-1.78.78-1.78.82-1.76.86-1.76.89-3.47,1.89-3.44,2L133.85,169l-6.76,4.48-20.37,14.2L103.25,190l-3.52,2.25-3.57,2.18-3.62,2.08L89.8,198,87,199.42l-1.41.67-1.41.63-1.42.6-1.44.57-1.44.53-1.44.49-1.46.45-1.48.41-1.48.36-1.49.3-.75.14-.75.12-.76.1-.75.1-.76.07L68,205l-.76,0-.76,0-.77,0H65l-.78,0-.78,0-.78,0-.78-.07-.79-.09-.79-.1-.79-.13-.79-.14-.8-.16-.8-.18-.81-.2-.8-.22-.8-.25-.81-.26-.81-.28-.82-.31-.82-.33-.82-.35-.83-.37-.83-.4-.83-.42-.83-.44-.84-.47-.84-.48-.84-.52-.85-.54-.55-2.06-.51-2.09-.46-2.09-.43-2.1-.39-2.06-.35-2.06-.31-2.08-.28-2.09-.24-2.09-.2-2.1-.29-4.2-.15-4.22v-4.22l.14-4.21.28-4.21.43-4.18.57-4.15.33-2.07.38-2.05.41-2,.43-2,.48-2,.51-2,.55-2,.58-2,.62-2,.66-1.94.68-1.92.73-1.9,1-2.38,1-2.34,1.07-2.31,1.12-2.26,1.17-2.24,1.22-2.21,1.26-2.18,1.32-2.14L58,104,59.41,102l1.46-2,1.5-2,1.55-2L65.51,94l1.63-1.89,1.67-1.86L68,97.09l-.75,7.21-.64,7.64L66.05,120l0,.5,0,.5v1.06l0,.11v.11l0,.11,0,.11,0,.11,0,.1,0,.1,0,.11,0,.09,0,.1,0,.1,0,.09,0,.09,0,.09,0,.09.06.08,0,.08,0,.08,0,.08.07.08.05.07.06.07.06.07.05.06.06.07,0,0,0,0,0,0,0,0,0,0,0,0,0,0,0,0,0,0,0,0,0,0,0,0,0,0,0,0,0,0,0,0,0,0,0,0,0,0,0,0h0l0,0,0,0h.08l0,0h.17l.08,0,.09,0h.77l.09,0h.09l.08,0,.09,0,.08,0,.09,0,.08,0,.08,0,.09,0,.08,0,.08,0,.08,0,.08,0,.08,0,.07-.06.08,0,.07-.06.07-.06.08-.06.06-.07.07-.07.07-.07.06-.07.07-.08.06-.08.06-.08.06-.08,0-.08,0-.09.06-.09,0-.09.05-.09,0-.1,0-.09,0-.1,0-.1,0-.11,0-.1,0-.11,0-.1,0-.11,0-.11,0-.23,0-.23,0-.23,0-.24,0-.24.05-.49,0-.5.93-9.34L74.13,102l.65-4.09.7-4,.75-3.77L77,86.54l.83-3.49.87-3.35.91-3.2.93-3.07,1-2.93,1-2.81,1-2.67,1.06-2.55L85.74,60l1.11-2.31L88,55.51l1.15-2.08,1.16-2,1.18-1.88,1.18-1.79,1.2-1.68,1.21-1.59L96.27,43l1.22-1.4,1.21-1.33L99.92,39l1.21-1.18,1.2-1.1,1.19-1,1.19-1,1.17-.9,1.17-.83,1.16-.77.57-.36.57-.34.57-.33.57-.31.56-.3.56-.28.56-.27.55-.24.56-.25.55-.22.54-.2.55-.2.53-.18.54-.17.53-.15.54-.14.53-.12.52-.11.53-.1.52-.08.52-.07.52-.06.51-.05.51,0,.51,0h1l.5,0,.5,0,.49.05.49,0,.48.07.49.08.48.09.47.1.48.12.46.12.47.14.46.14.46.16.46.17.46.18.45.19.45.19.45.21.44.23.44.22.44.25.43.25.43.26.43.27.42.28.42.29.42.29.41.31.41.32.81.66.8.69.78.72.77.76.75.79.75.82.73.85.71.87.7.9.69.93.68,1,.66,1,.64,1,.63,1,.62,1,.6,1.05,1.16,2.17,1.11,2.22,1,2.27,1,2.31.93,2.36.86,2.38.8,2.4.73,2.41.68,2.39.61,2.41.55,2.4.5,2.39.45,2.37.39,2.36.34,2.34.29,2.33.46,4.58.3,4.45.15,4.33,0,4.17-.09,4-.1,1.92-.13,1.87-.18,1.81-.22,1.76-.27,1.7-.16.83-.17.81-.18.8-.2.79-.21.77-.23.76-.25.74-.26.72-.28.71-.3.69-.31.67-.34.66-.35.64-.18.32-.19.3-.19.31-.2.3-.21.3-.21.29-.21.28-.22.29-.22.28-.23.26-.24.27-.24.27-.25.26-.25.25-.25.25-.25.24-.27.24-.28.23-.26.23-.28.22-.28.21-.29.21-.28.2-.3.19-.29.19-.3.17-.3.17-.31.17-.31.15-.31.15-.31.14-.31.12-.32.13-.32.11-.32.1-.32.09-.33.09-.32.07-.33.07-.32,0-.33,0-.33,0-.33,0h-1l-.33,0h-.16l-.17,0-.16,0-.17,0-.16,0-.17,0-.16,0-.16,0-.17,0-.16,0-.15-.05-.18,0-.16-.05-.16-.05-.16-.06-.16-.06-.17-.07-.15-.06-.17-.07-.15-.08-.16-.08-.16-.08-.16-.08-.16-.09-.15-.09-.16-.1-.16-.1-.16-.1-.31-.21-.3-.23-.31-.25-.3-.26-.3-.27-.3-.29-.29-.3-.29-.32-.29-.34-.28-.35-.28-.37-.27-.38-.27-.4.56,1.87.59,1.75.31.83.3.8.31.76.32.74.32.71.33.68.33.65.33.62.34.6.34.57.34.54.35.5.34.49.36.46.36.44.35.41.18.19.18.19.18.19.19.18.18.17.18.16.19.16.18.16.19.15.18.14.19.14.19.13.19.12.18.12.19.12.19.11.19.1.19.1.19.09.19.09.19.08.19.08.19.07.19.07.19.06.2.06.19.05.19.05.19,0,.19,0,.2,0,.19,0,.19,0,.19,0h1.35l.2,0,.19,0,.19,0,.19,0,.2,0,.19,0,.19,0,.19,0,.19,0,.2-.05.19-.06.18-.06.2-.07.38-.14.38-.15.37-.17.37-.18.37-.19.37-.21.37-.22.37-.23.37-.24.36-.25.36-.27.36-.27.35-.29.35-.29.35-.31.34-.31.34-.32.34-.33.33-.33.66-.7.64-.73.63-.76.61-.79.59-.83.58-.85.57-.89.55-.91.53-.95.51-1,.52-1,.48-1,.46-1.06.46-1.07.44-1.11.42-1.14.41-1.17.39-1.19.38-1.21.69-2.51.64-2.61.56-2.69.5-2.79.43-2.88.36-3,.29-3,.21-3.13.14-3.18.06-3.25,0-3.28-.11-3.32-.2-3.35L170.57,78l-.39-3.37-.49-3.38-.59-3.36-.7-3.34-.8-3.31-.45-1.65L166.68,58l-.5-1.62-.53-1.61-.56-1.58-.59-1.58-1-2.56-1.11-2.52-1.18-2.46-1.26-2.39-1.31-2.35L157.23,37l-1.43-2.23-1.46-2.15,1.29-1.45,1.25-1.34,1.23-1.26,1.2-1.17,1.18-1.09,1.16-1,1.13-.95,1.12-.89,1-.79,1-.75,1-.7,1-.66,1-.61,1-.57,1-.52,1-.47,1-.44.48-.2.48-.19.48-.18.47-.16.48-.15.46-.15.47-.14.47-.13.46-.11.47-.11.46-.1.46-.08.47-.08.46-.07.46-.05.45,0,.46,0,.46,0h1.82l.45,0,.45,0,.45,0,.46,0,.45.06.45.06.45.08.45.08.45.09.44.1.46.11.45.12.9.26.9.29.91.32.91.37.91.38.91.43.92.45.93.49.92.52.93.54.92.58.93.61.93.64.91.66.92.7.92.73.92.75.91.79.9.81.9.85.89.87.89.89.87.93.86.95.86,1,.83,1,.83,1,.82,1.07.8,1.09.79,1.12.77,1.15.76,1.18.74,1.2.72,1.22.71,1.25.68,1.28.67,1.31.64,1.33.62,1.35.6,1.38.58,1.41.56,1.42,1,2.9,1,3,.88,3,.81,3.06.74,3.08.65,3.1.59,3.11.51,3.1.44,3.06.37,3,.31,3,.24,2.94.18,2.85.11,2.78.06,2.68v2.59l-.07,2.48-.14,2.39-.2,2.29-.12,1.1-.15,1.09-.16,1.06-.18,1-.2,1-.21,1-.23,1-.26.93-.27.9-.29.88-.31.86-.33.83-.34.8-.37.78-.19.38-.2.37-.2.37-.21.36-.21.35-.22.35-.22.33-.23.34-.23.32-.24.33-.24.31-.25.31-.25.3-.25.29L224,126l-.26.28-.27.26-.28.28-.29.25-.29.25-.3.25-.3.24-.3.23-.32.22-.31.22-.32.21-.33.2-.32.2-.34.19-.33.17-.35.18-.34.16-.35.15-.35.15-.36.14-.36.13-.37.12-.36.11-.37.11-.38.09-.38.09-.38.08-.38.06-.39.06-.38.05-.4,0-.39,0-.4,0h-1.6l-.4,0-.41,0-.41,0-.42-.06-.41-.06-.42-.08-.41-.09-.42-.1-.42-.11-.42-.13-.43-.13-.42-.14-.42-.16-.43-.16-.42-.18-.43-.19-.42-.2-.43-.21-.43-.23-.42-.23-.43-.25-.43-.26-.43-.27-.42-.28-.43-.3-.42-.3-.42-.33-.43-.33.39.77.41.74.39.72.41.69.42.67.42.64.42.61.42.6.43.56.43.55.44.52.44.5.44.47.44.45.45.43.45.41.46.38.45.36.46.35.46.32.46.3.46.28.46.26.47.24.23.11.23.11.24.1.23.1.23.08.24.1.22.08.24.07.24.08.24.06.22.08.24.05.24.06.22,0,.24.05.23,0,.24,0,.23,0,.24,0,.23,0,.24,0,.23,0,.47,0h.93l.47,0,.46,0,.47-.06.46-.06.46-.09.46-.1.45-.11.46-.12.45-.14.45-.16.44-.15.45-.19.44-.18.44-.2.43-.21.42-.23.44-.23.42-.25.41-.26.42-.26.41-.28.41-.28.4-.3.4-.3.39-.32.39-.32.38-.33.38-.33.37-.35.37-.35.36-.37.36-.37.7-.76.68-.79.66-.83.64-.85.62-.89.6-.91.58-.93.56-1,.55-1,.51-1,.5-1,.48-1.09.47-1.11.44-1.14.43-1.16.41-1.19.39-1.22.37-1.23.35-1.27.33-1.29.31-1.31.58-2.71.5-2.79.43-2.88.36-3,.34-3.73.24-3.83.12-3.92v-4l-.12-4.05-.23-4.09-.37-4.11-.49-4.12,3.68,2.17,3.6,2.29L250.89,73l1.74,1.22,1.73,1.25,1.7,1.28,1.67,1.32,1.65,1.33L261,80.82l1.59,1.41,1.57,1.44,1.54,1.47,1.51,1.5,1.48,1.53,1.44,1.55,1.4,1.57,1.37,1.62,1.34,1.64,1.31,1.66,1.28,1.7,1.24,1.72,1.21,1.74,1.18,1.77,1.15,1.78,1.11,1.81,1.07,1.84,1,1.85,1,1.88,1,1.88.94,1.91.9,1.93.86,1.94.83,2,.79,2,.75,2,.72,2,.68,2,.64,2,.6,2,.56,2,.53,2,.48,2,.45,2.06.39,2.06.37,2.07.32,2.07.45,3.41.34,3.43.23,3.42.12,3.43v3.41Z"/></g></g></svg>