<svg xmlns="http://www.w3.org/2000/svg" width="3888" height="115" viewBox="0 0 3888 115"><g transform="translate(-161 438.5)"><g transform="translate(175 -752.5)"><path d="M-14,314.5c81,0,81,114,162,114s81-114,162-114,81,114,162,114,81-114,162-114,81,114,162,114,81-114,162-114,81,114,162,114,81-114,162-114,81,114,162,114,81-114,162-114,81,114,162,114,81-114,162-114" fill="none" stroke="#fff" stroke-miterlimit="10" stroke-width="1"/></g><g transform="translate(2119 -752.5)"><path d="M-14,314.5c81,0,81,114,162,114s81-114,162-114,81,114,162,114,81-114,162-114,81,114,162,114,81-114,162-114,81,114,162,114,81-114,162-114,81,114,162,114,81-114,162-114,81,114,162,114,81-114,162-114" fill="none" stroke="#fff" stroke-miterlimit="10" stroke-width="1"/></g></g></svg>