<?xml version="1.0" encoding="UTF-8"?>
<!DOCTYPE svg PUBLIC "-//W3C//DTD SVG 1.1//EN" "http://www.w3.org/Graphics/SVG/1.1/DTD/svg11.dtd">
<!-- Creator: CorelDRAW 2020 (64-Bit) -->
<svg xmlns="http://www.w3.org/2000/svg" xml:space="preserve" width="48.889mm" height="37.9299mm" version="1.1" style="shape-rendering:geometricPrecision; text-rendering:geometricPrecision; image-rendering:optimizeQuality; fill-rule:evenodd; clip-rule:evenodd"
viewBox="0 0 33281.36 25820.92"
 xmlns:xlink="http://www.w3.org/1999/xlink"
 xmlns:xodm="http://www.corel.com/coreldraw/odm/2003">
 <defs>
  <style type="text/css">
   <![CDATA[
    .fil0 {fill:white}
   ]]>
  </style>
 </defs>
 <g id="图层_x0020_1">
  <metadata id="CorelCorpID_0Corel-Layer"/>
  <path class="fil0" d="M3626.31 2900.76c-373.39,61.13 -666.73,344.33 -747.47,701.52l0 18416.9c0,494.43 384.56,890.02 868.03,922.97l16261.64 0c802.13,0 1439.39,648.28 1439.39,1439.39 0,802.13 -637.25,1439.39 -1439.39,1439.39l-17624.17 0c-1274.57,0 -2318.44,-1010.92 -2384.34,-2274.47l0 -21140.19c0,-1318.48 1076.82,-2395.3 2395.3,-2395.3l1922.86 0 0 -10.96 26886.7 10.96 219.82 43.84 65.9 32.95 109.94 43.91c11.03,0 11.03,0 21.99,0l65.9 43.98c10.96,0 21.99,10.96 32.95,10.96l54.94 32.95c11.03,11.03 21.99,21.99 43.98,21.99l109.87 87.82c10.96,0 10.96,10.96 10.96,10.96l109.94 109.87 65.9 76.93c21.99,21.99 33.02,32.95 43.98,54.94 0,0 0,0 10.96,0 32.95,65.97 76.93,120.9 109.87,186.8l76.86 153.78c11.03,10.96 11.03,21.99 21.99,32.95l10.96 65.9 54.8 175.84 10.76 264c0,0 0,0 10.96,10.96l0 98.91 -43.84 230.71 -65.9 208.72c0,10.96 -10.96,21.99 -10.96,32.95 -11.03,10.96 -11.03,21.99 -21.99,32.95 0,10.96 -10.96,21.99 -10.96,32.95 -11.03,10.96 -11.03,21.99 -21.99,32.95 0,11.03 -10.96,21.99 -10.96,21.99l-32.95 54.94c-11.03,21.99 -11.03,33.02 -21.99,43.98l-54.87 76.93 -32.95 32.95c0,11.03 -10.96,11.03 -10.96,21.99l-76.86 87.89 -109.87 87.95 -14613.53 12251.25c-682.52,665.03 -1471.18,649.23 -2131.58,65.97l-8449.45 -7098.01c-615.33,-505.46 -692.26,-1417.4 -186.8,-2032.73 516.42,-604.3 1428.43,-681.23 2032.73,-175.77l7636.35 6405.82 10833.78 -9086.77 -23436.24 0zm23370.13 12525.59c560.4,571.36 560.4,1483.36 0,2043.69l-1472.33 1472.27 6317.87 0c791.1,0 1439.39,648.28 1439.39,1439.39 0,802.13 -648.28,1450.35 -1439.39,1450.35l-6306.91 0 1461.37 1461.37c560.4,571.36 560.4,1472.33 0,2043.69 -571.36,560.4 -1472.33,560.4 -2043.69,0l-3933.6 -3933.53 -50.92 -53.58 1.23 -1.23 -91.22 -113.35 -1.91 1.84 -208.11 -407.64c-164.4,-510.5 -28.52,-1090.29 351.13,-1469.95l3933.39 -3933.33c571.36,-560.4 1472.33,-560.4 2043.69,0zm-6052.38 5896.14l0 0zm72.5 -1959.89l0 0zm10001.36 -4090.1c-791.1,0 -1439.39,-648.28 -1439.39,-1450.35l0 -5142.21c0,-791.1 637.25,-1439.39 1439.39,-1439.39 791.1,0 1439.39,648.28 1439.39,1439.39l0 5153.24c0,791.1 -637.25,1439.39 -1439.39,1439.39l0 -0.07z" p-id="1194"/>
 </g>
</svg>
