<svg xmlns="http://www.w3.org/2000/svg" width="91.973" height="91.973" viewBox="0 0 91.973 91.973"><g transform="translate(-20449.012 -10222.21)"><g transform="translate(20470 10243)" fill="none" stroke="#fff" stroke-width="7"><circle cx="25" cy="25" r="25" stroke="none"/><circle cx="25" cy="25" r="21.5" fill="none"/></g><path d="M20495,10225.7v4.973" transform="translate(0 0.007)" fill="none" stroke="#fff" stroke-linecap="round" stroke-width="7"/><path d="M20495,10225.7v4.973" transform="translate(0 80.007)" fill="none" stroke="#fff" stroke-linecap="round" stroke-width="7"/><g transform="translate(13263.558 -11484.668) rotate(45)"><path d="M20495,10225.7v4.973" transform="translate(0 0.007)" fill="none" stroke="#fff" stroke-linecap="round" stroke-width="7"/><path d="M20495,10225.7v4.973" transform="translate(0 80.007)" fill="none" stroke="#fff" stroke-linecap="round" stroke-width="7"/></g><g transform="translate(30763.195 -10226.804) rotate(90)"><path d="M20495,10225.7v4.973" transform="translate(0 0.007)" fill="none" stroke="#fff" stroke-linecap="round" stroke-width="7"/><path d="M20495,10225.7v4.973" transform="translate(0 80.007)" fill="none" stroke="#fff" stroke-linecap="round" stroke-width="7"/></g><g transform="translate(42247.863 3036.755) rotate(135)"><path d="M20495,10225.7v4.973" transform="translate(0 0.007)" fill="none" stroke="#fff" stroke-linecap="round" stroke-width="7"/><path d="M20495,10225.7v4.973" transform="translate(0 80.007)" fill="none" stroke="#fff" stroke-linecap="round" stroke-width="7"/></g></g></svg>