<svg xmlns="http://www.w3.org/2000/svg" viewBox="0 0 305.52 114.56"><defs><style>.cls-1{fill:#fff;}</style></defs><title>LOGO_name</title><g id="图层_2" data-name="图层 2"><g id="图层_1-2" data-name="图层 1"><path class="cls-1" d="M54.52,43.14c-2.94,1.32-.4,5.62,2.52,4.32C69.18,42,66.57,22.18,59.18,14.09,48.39,2.26,34.63,15.67,27.92,24.46,16.89,38.89,8.67,56.29,3.45,73.64-.35,86.3-4,104.47,10,112.21c8.66,4.77,19.59,1.4,27.92-2.31A71.28,71.28,0,0,0,63.55,90.85c2-2.47-1.48-6-3.53-3.54-6,7.31-14,12.92-22.38,17.21-8.1,4.15-20,8.08-27.91,1.5-5.57-4.65-5.11-12.7-4.17-19.2C6.83,78,9.83,69.41,13.18,61.18,19.33,46.05,27.89,28.53,40.7,17.86c14.19-11.82,24,11,17.39,22.26A7.42,7.42,0,0,1,54.52,43.14Z"/><path class="cls-1" d="M119.15,45.74c-4.89,1-9.06,4-10.15,9.06s2.59,8.78,7.06,10.08c3.11.9,4.42-3.92,1.33-4.82-8.75-2.54,1.85-13.6,8.34-7.65,4.36,4,4.73,12.1,2.46,17.17-3.12,7-12.63,14.85-19.84,8.53-6.12-5.36-2.15-17.27-2-24.23a2.52,2.52,0,0,0-3.76-2.15c-10.49,6.2-17.88,16.72-24,27.71.6-6.54-.27-12.92-4.76-17.88-2.17-2.39-5.7,1.15-3.54,3.54C77.67,73.21,72,87.85,69.68,97c-.68,2.68,3.27,4.53,4.57,1.93,6.82-13.64,14.24-30.46,26.81-40.13-.85,10.59-2.34,24.87,11.08,26.57,11.48,1.46,21.76-10.45,22.39-21.18C135,55.66,129.46,43.58,119.15,45.74Z"/><path class="cls-1" d="M142.67,38.6c-2.08.51-3.16,1.62-4.53,3.22-1.87,2.17.75,5.23,2.83,4.1.11,9.23-.55,18.45-1.12,27.67a2.29,2.29,0,0,0-.73,1.76V91.66c0,3.22,5,3.22,5,0,.09-16.9,2.48-33.74,1.72-50.65A2.53,2.53,0,0,0,142.67,38.6Z"/><path class="cls-1" d="M139.83,27.27c0-.31,0-.62,0-.93,0-.15,0-.3,0-.46a.09.09,0,0,0,0-.05,1.3,1.3,0,0,0,0-.15c0-.1,0-.19.08-.29s.27-.22.33-.25a2.5,2.5,0,0,0-2.52-4.32c-2.47,1.35-3,3.87-3,6.45a2.5,2.5,0,1,0,5,0Zm.19-2Z"/><path class="cls-1" d="M170.81,56.54c-4.48-.07-13.77.2-14.28-5.54a13.8,13.8,0,0,1,2.26-8.25A5.76,5.76,0,0,1,163.66,40c1.91-.14.11,2.66-.16,3.22-1.41,2.89,2.9,5.42,4.32,2.52s3.67-9.2-1.44-10.38c-5.84-1.35-10.4,1.74-13,6.83-1.82,3.57-3.62,12.11.19,15.22,3.6,2.94,8.85,3.78,13.67,4.05-2.21,4.91-5.88,8.87-9.38,13-1.77,2.09.46,5.43,3,3.92a20.31,20.31,0,0,0,3.94-3,2.23,2.23,0,0,0,.66-2.31c3.28-4,6.2-8.23,7.71-13.39A2.52,2.52,0,0,0,170.81,56.54Z"/><path class="cls-1" d="M196.37,62.63c-5.32-1.91-13.08-4.12-15.41-9.94-1.36-3.41.15-7.08,1.17-10.34.6-1.9,4.41-11.13,7.12-7,1.75,2.7,6.08.19,4.32-2.52-7.85-12.1-16.26,6.43-17.75,13.28-2.45,11.21,7.07,16.59,16,20.09-3,3.88-6.91,6.71-11.1,9.51-2.67,1.79-.17,6.12,2.52,4.32,5.74-3.83,11-7.81,14.63-13.77A2.54,2.54,0,0,0,196.37,62.63Z"/><path class="cls-1" d="M300.85,35.45c-5.46,9.6-26.1,27.3-30.15,7.34-.06-.32-.12-.65-.17-1a2.43,2.43,0,0,0-.4-3.59c-.33-5.87.69-12,1.66-17.63.15-.84.31-1.69.47-2.54a32.77,32.77,0,0,0,6.26-3.21c2.66-1.79.16-6.12-2.52-4.32A25.86,25.86,0,0,1,273.59,12,90.38,90.38,0,0,1,276.24,3c1.08-3-3.75-4.34-4.83-1.33a102.45,102.45,0,0,0-3.51,12.62C264,15.66,259.9,16.59,256,18c-3,1.09-1.71,5.92,1.33,4.83s6.35-2,9.53-2.93c-.28,1.66-.54,3.32-.76,5a72.42,72.42,0,0,0-.81,15.21c-3.64,3.8-9.73,9.64-13.15,4.21s-4.19-12.61-5.94-18.54c-.66-2.24-3.31-2.27-4.57-.6a62.68,62.68,0,0,0-7.21,12.54,37.5,37.5,0,0,0-3.07-13.4c-1.33-2.93-5.64-.38-4.31,2.53,2.39,5.27,2.73,11,2.61,16.78-1.59,1.68-3.52,2.92-5.68,2.5-4.16-.79-2.37-8.9-1.81-11.29.76-3.18-3.72-4.33-4.82-1.33,0,.12-.1.24-.14.36a5.4,5.4,0,0,0-2.93-4.29c-3.07-1.43-6.22.81-8.47,2.73-7.3,6.27-10.08,17.21-8,26.4,1.81,7.87,9.09,2.6,12-1.11a73.5,73.5,0,0,0,7.42-11.64A7.49,7.49,0,0,0,222,50.7a9,9,0,0,0,7.44-.8c-.07,1.63-.14,3.25-.15,4.84,0,2.77,4.36,3.48,4.91.67a70.1,70.1,0,0,1,8.56-22.92c1.45,6.17,3,13,7.31,17.15,5,4.81,11.49.58,16.28-3.71a23.35,23.35,0,0,0,1.46,3.89c3.53,7.2,11.69,8.65,18.53,5.86,7.89-3.22,14.7-10.4,18.86-17.7C306.77,35.17,302.45,32.65,300.85,35.45Zm-98,22.27a10.35,10.35,0,0,1-.33-1.07,19.61,19.61,0,0,1-.24-4.4,21.83,21.83,0,0,1,2.44-10.38,20.06,20.06,0,0,1,5.48-6.75c3.28-2.51,2.24,1.77,1.92,4.17a1.94,1.94,0,0,0,1.64,2.32q-1.46,2.88-3,5.66C209,50.17,206.25,56.1,202.82,57.72Z"/></g></g></svg>